<svg xmlns="http://www.w3.org/2000/svg" width="77" height="48.001" viewBox="0 0 77 48.001"><g transform="translate(-4150 11677)"><rect width="77" height="48" transform="translate(4150 -11677)" fill="none"/><path d="M19.166,47.516a23.775,23.775,0,0,1-4.507-1.4,24.015,24.015,0,0,1-4.074-2.21A24.1,24.1,0,0,1,4.1,37.421,23.866,23.866,0,0,1,.489,28.84a24.182,24.182,0,0,1,0-9.674,23.82,23.82,0,0,1,1.4-4.507c.276-.654.588-1.308.926-1.939a6.86,6.86,0,0,0,2.509,1.888c-.206.409-.4.832-.583,1.259a20.539,20.539,0,0,0-1.216,3.922,21.1,21.1,0,0,0,0,8.425,20.776,20.776,0,0,0,1.216,3.926A20.972,20.972,0,0,0,15.866,43.263a20.872,20.872,0,0,0,3.922,1.219A20.943,20.943,0,0,0,43.263,32.139a21.014,21.014,0,0,0,1.219-12.351,20.807,20.807,0,0,0-1.219-3.922,21.045,21.045,0,0,0-1.928-3.552c-.042-.063-.085-.125-.128-.187l2.22-2.22c.163.223.318.445.476.678a23.926,23.926,0,0,1,3.613,8.582,24.4,24.4,0,0,1,0,9.674A24.016,24.016,0,0,1,43.9,37.421,24.077,24.077,0,0,1,37.421,43.9a24.059,24.059,0,0,1-8.581,3.613,24.4,24.4,0,0,1-9.674,0ZM21,38.566a14.85,14.85,0,0,1-7.516-4.053,15.417,15.417,0,0,1-1.815-2.2A14.983,14.983,0,0,1,10.3,29.786a14.828,14.828,0,0,1,1.372-14.095,15,15,0,0,1,1.815-2.2,14.637,14.637,0,0,1,2.2-1.816A14.7,14.7,0,0,1,21,9.439a15.028,15.028,0,0,1,5.99,0,14.636,14.636,0,0,1,2.793.865,14.869,14.869,0,0,1,1.717.863l-2.168,2.168c-.235-.118-.468-.226-.694-.321a11.9,11.9,0,0,0-13.073,2.558,11.642,11.642,0,0,0-1.454,1.763A11.871,11.871,0,0,0,12.074,24a11.959,11.959,0,0,0,3.494,8.433,12.17,12.17,0,0,0,1.763,1.454,11.661,11.661,0,0,0,2.028,1.1,11.975,11.975,0,0,0,9.283,0l.231-.1a6.886,6.886,0,0,0,2.043,2.275c-.373.2-.752.376-1.13.536a14.97,14.97,0,0,1-2.793.869,15.028,15.028,0,0,1-5.99,0Zm9.189-6.977a4.645,4.645,0,1,1,4.646,4.646A4.645,4.645,0,0,1,30.192,31.589ZM18.426,24a5.576,5.576,0,0,1,8.266-4.882L41.505,4.3a1.548,1.548,0,0,1,2.19,2.19L28.883,21.308A5.575,5.575,0,1,1,18.426,24Zm20.3,2a6.825,6.825,0,0,0-2.838-1.139c.02-.279.031-.567.031-.857a11.918,11.918,0,0,0-.936-4.641c-.1-.233-.208-.465-.321-.69L36.834,16.5a14.917,14.917,0,0,1,.863,1.715,14.654,14.654,0,0,1,.865,2.792,14.924,14.924,0,0,1,.3,2.993,15.225,15.225,0,0,1-.132,2v0ZM3.406,8.361a4.645,4.645,0,1,1,4.646,4.645A4.646,4.646,0,0,1,3.406,8.361Zm32.47-1.567-.188-.129a21.115,21.115,0,0,0-3.549-1.927,20.684,20.684,0,0,0-3.926-1.215,21.055,21.055,0,0,0-8.425,0,20.514,20.514,0,0,0-3.922,1.215c-.547.231-1.094.491-1.625.773A6.873,6.873,0,0,0,12.3,3.039,23.735,23.735,0,0,1,19.166.489a24.182,24.182,0,0,1,9.674,0A23.846,23.846,0,0,1,37.421,4.1c.212.142.44.3.676.472l-2.219,2.22h0Z" transform="translate(4165 -11677)" fill="#414a50"/></g></svg>