<svg xmlns="http://www.w3.org/2000/svg" width="24" height="24" viewBox="0 0 24 24"><g transform="translate(11642 7533)"><rect width="24" height="24" transform="translate(-11642 -7533)" fill="none"/><g transform="translate(1853.235 214.926)"><path d="M3233,5219h6" transform="translate(-16725.301 -12963.824)" fill="none" stroke="currentColor" stroke-linecap="round" stroke-linejoin="round" stroke-width="2"/><path d="M3234,5356l1.28-4.68a3.032,3.032,0,0,1,.19-.6,1.59,1.59,0,0,1,.2-.36,4.927,4.927,0,0,1,.43-.46l11.368-11.463a1.265,1.265,0,0,1,.42-.34.514.514,0,0,1,.3,0,1.265,1.265,0,0,1,.42.34l2.86,2.86a1.261,1.261,0,0,1,.34.42.51.51,0,0,1,0,.3,1.261,1.261,0,0,1-.34.42L3240.1,5353.9a4.892,4.892,0,0,1-.46.43,1.567,1.567,0,0,1-.36.2,3.027,3.027,0,0,1-.6.19Z" transform="translate(-16726 -13083)" fill="none" stroke="currentColor" stroke-linecap="round" stroke-linejoin="round" stroke-width="2"/></g></g></svg>
