<svg xmlns="http://www.w3.org/2000/svg" width="24" height="24" viewBox="0 0 24 24"><g transform="translate(11824 7476)"><rect width="24" height="24" transform="translate(-11824 -7476)" fill="none"/><path d="M1970,4225h-2m8-4h-8m12-.2a7.374,7.374,0,0,0-.33-3.16,2.864,2.864,0,0,0-1.31-1.31,7.373,7.373,0,0,0-3.16-.33h-6.4a7.373,7.373,0,0,0-3.16.33,2.864,2.864,0,0,0-1.31,1.31,7.374,7.374,0,0,0-.33,3.16v6.4a7.374,7.374,0,0,0,.33,3.16,2.864,2.864,0,0,0,1.31,1.31,7.373,7.373,0,0,0,3.16.33h2.7m10.5,0-1.5-1.5m1-2.5a3.5,3.5,0,1,1-3.5-3.5A3.5,3.5,0,0,1,1981.5,4228Z" transform="translate(-13784 -11688)" fill="none" stroke="#000" stroke-linecap="round" stroke-linejoin="round" stroke-width="2"/></g></svg>