<svg xmlns="http://www.w3.org/2000/svg" width="22" height="49" viewBox="0 0 22 49"><g transform="translate(11873 7194)"><rect width="22" height="49" transform="translate(-11873 -7194)" fill="none"/><g transform="translate(-11868 -7178)"><path d="M0,17.452H0V14.93H0V13.537H0V11.519a1.086,1.086,0,0,1,.54-.94L3.7,8.745,6,7.413V10.07l-.011-.006L3.119,11.729h0l-.831.482,0,1.85h0v2.076L0,17.452Zm6-7.4H6V7.4l.012.007,3.7-2.15h0l0-2.7h0V1.319L12,0V2.173h0L12,4.1V5.952a1.087,1.087,0,0,1-.54.94l-1.038.6L6,10.051Z" transform="translate(0 0)" fill="#df605c"/><path d="M0,3.865,0,1.319,2.285,0V2.54L0,3.865H0Z" transform="translate(0 0.99)" fill="#afb5bc"/><path d="M.63,3.487A.627.627,0,0,1,0,2.873H0V1.319L2.285,0V2.54L.655,3.486Z" transform="translate(0 5.217)" fill="#afb5bc"/><path d="M0,1.319,2.285,0V3.493L0,4.818Z" transform="translate(9.714 12.596)" fill="#afb5bc"/><path d="M0,3.489H0L0,.943,1.633,0h.026a.627.627,0,0,1,.627.614v1.55L0,3.489Z" transform="translate(9.714 8.812)" fill="#afb5bc"/></g></g></svg>
