<svg xmlns="http://www.w3.org/2000/svg" width="23" height="23" viewBox="0 0 23 23"><path d="M19,23H4a4,4,0,0,1-4-4V4A4,4,0,0,1,4,0H19a4,4,0,0,1,4,4V19A4.005,4.005,0,0,1,19,23ZM12.02,6.432A5.687,5.687,0,0,0,9.3,7.083a4.886,4.886,0,0,0-1.9,1.806A5,5,0,0,0,6.7,11.5a4.99,4.99,0,0,0,.693,2.611,4.874,4.874,0,0,0,1.9,1.806,5.657,5.657,0,0,0,2.709.651,5.805,5.805,0,0,0,2.31-.447,4.572,4.572,0,0,0,1.736-1.3L14.6,13.475a3.13,3.13,0,0,1-2.464,1.162,3.282,3.282,0,0,1-1.624-.4A2.847,2.847,0,0,1,9.4,13.125a3.507,3.507,0,0,1,0-3.248,2.856,2.856,0,0,1,1.113-1.113,3.291,3.291,0,0,1,1.624-.4A3.144,3.144,0,0,1,14.6,9.512l1.456-1.344a4.644,4.644,0,0,0-1.729-1.288A5.741,5.741,0,0,0,12.02,6.432Z"/></svg>