<svg xmlns="http://www.w3.org/2000/svg" width="23" height="23" viewBox="0 0 23 23"><path d="M19,23H4a4,4,0,0,1-4-4V4A4,4,0,0,1,4,0H19a4,4,0,0,1,4,4V19A4.005,4.005,0,0,1,19,23ZM7.307,6.6v9.8h5.068a5.14,5.14,0,0,0,2.919-.693,2.275,2.275,0,0,0,1-1.981,2.467,2.467,0,0,0-.476-1.534A2.6,2.6,0,0,0,14.5,11.3a2.354,2.354,0,0,0,1.3-2.155,2.18,2.18,0,0,0-.958-1.862A4.712,4.712,0,0,0,12.1,6.6Zm4.9,8.092H9.561V12.271h2.646c1.2,0,1.806.41,1.806,1.218a1.011,1.011,0,0,1-.455.91A2.522,2.522,0,0,1,12.207,14.693Zm-.392-4.074H9.561V8.309h2.254a2.333,2.333,0,0,1,1.274.286.968.968,0,0,1,.435.861.985.985,0,0,1-.435.868A2.289,2.289,0,0,1,11.815,10.618Z"/></svg>