<svg xmlns="http://www.w3.org/2000/svg" width="23" height="23" viewBox="0 0 23 23"><path d="M19,23H4a4,4,0,0,1-4-4V4A4,4,0,0,1,4,0H19a4,4,0,0,1,4,4V19A4.005,4.005,0,0,1,19,23ZM7.1,6.6v9.8h4.451a6.291,6.291,0,0,0,2.821-.609,4.578,4.578,0,0,0,1.9-1.715,4.844,4.844,0,0,0,.679-2.576,4.844,4.844,0,0,0-.679-2.576,4.59,4.59,0,0,0-1.9-1.715A6.291,6.291,0,0,0,11.552,6.6Zm4.34,7.938H9.368V8.463H11.44a3.306,3.306,0,0,1,2.344.819A2.9,2.9,0,0,1,14.66,11.5a2.9,2.9,0,0,1-.876,2.219A3.309,3.309,0,0,1,11.44,14.539Z"/></svg>